<svg id="Layer_1" data-name="Layer 1" xmlns="http://www.w3.org/2000/svg" xmlns:xlink="http://www.w3.org/1999/xlink" viewBox="0 0 103.11 15.31"><defs><style>.cls-1{fill:url(#New_Gradient_Swatch_4);}</style><linearGradient id="New_Gradient_Swatch_4" x1="0.52" y1="1070.39" x2="103.62" y2="1070.39" gradientTransform="translate(0 -1062)" gradientUnits="userSpaceOnUse"><stop offset="0" stop-color="#ffae00"/><stop offset="1" stop-color="#ff5a00"/></linearGradient></defs><path class="cls-1" d="M1.2,11.9a27,27,0,0,0,23,2.7c10-3.5,17-10.6,28.4-8.4,8.9,1.7,16.9,5.9,26.1,5.8A42.46,42.46,0,0,0,103,3.6c1.5-1.1,0-3.7-1.5-2.6A39.07,39.07,0,0,1,75.6,8.9c-8.8-.6-16.7-5.1-25.4-6.1C42.9,1.9,37.1,4.6,30.9,8c-9.3,5.1-18.6,7.1-28.2,1.3-1.6-1-3.1,1.6-1.5,2.6Z" transform="translate(-0.52 -0.73)"/></svg>