<svg id="Layer_1" data-name="Layer 1" xmlns="http://www.w3.org/2000/svg" viewBox="0 0 19 77.01"><defs><style>.cls-1{fill:#f79422;}</style></defs><path class="cls-1" d="M18.7,4.6a1.63,1.63,0,0,1-1.6-1.5A1.55,1.55,0,1,1,20.2,3,1.56,1.56,0,0,1,18.7,4.6Zm0,8.2a1.63,1.63,0,0,1-1.6-1.5,1.55,1.55,0,1,1,3.1-.1A1.56,1.56,0,0,1,18.7,12.8Zm0,8.3a1.55,1.55,0,1,1,1.5-1.6A1.63,1.63,0,0,1,18.7,21.1Zm0,8.2a1.55,1.55,0,1,1,1.5-1.6A1.56,1.56,0,0,1,18.7,29.3Zm0,8.2a1.55,1.55,0,1,1,1.5-1.6A1.56,1.56,0,0,1,18.7,37.5Zm-8-32.9A1.47,1.47,0,0,1,9.2,3.1a1.54,1.54,0,0,1,1.5-1.5,1.47,1.47,0,0,1,1.5,1.5A1.47,1.47,0,0,1,10.7,4.6Zm0,8.2a1.47,1.47,0,0,1-1.5-1.5,1.54,1.54,0,0,1,1.5-1.5,1.5,1.5,0,0,1,0,3Zm0,8.2a1.5,1.5,0,1,1,1.5-1.5A1.42,1.42,0,0,1,10.7,21Zm0,8.3a1.47,1.47,0,0,1-1.5-1.5,1.54,1.54,0,0,1,1.5-1.5,1.5,1.5,0,0,1,0,3Zm0,8.2A1.47,1.47,0,0,1,9.2,36a1.54,1.54,0,0,1,1.5-1.5,1.5,1.5,0,1,1,0,3ZM2.7,4.6A1.47,1.47,0,0,1,1.2,3.1,1.54,1.54,0,0,1,2.7,1.6,1.47,1.47,0,0,1,4.2,3.1,1.42,1.42,0,0,1,2.7,4.6Zm0,8.2a1.47,1.47,0,0,1-1.5-1.5A1.54,1.54,0,0,1,2.7,9.8a1.47,1.47,0,0,1,1.5,1.5A1.42,1.42,0,0,1,2.7,12.8Zm0,8.2a1.47,1.47,0,0,1-1.5-1.5A1.54,1.54,0,0,1,2.7,18a1.47,1.47,0,0,1,1.5,1.5A1.37,1.37,0,0,1,2.7,21Zm0,8.3a1.47,1.47,0,0,1-1.5-1.5,1.54,1.54,0,0,1,1.5-1.5,1.47,1.47,0,0,1,1.5,1.5A1.42,1.42,0,0,1,2.7,29.3Zm0,8.2A1.47,1.47,0,0,1,1.2,36a1.54,1.54,0,0,1,1.5-1.5A1.47,1.47,0,0,1,4.2,36,1.42,1.42,0,0,1,2.7,37.5Zm16,8.1A1.55,1.55,0,1,1,20.2,44,1.56,1.56,0,0,1,18.7,45.6Zm0,8.2a1.55,1.55,0,1,1,1.5-1.6,1.5,1.5,0,0,1-1.5,1.6Zm0,8.3a1.55,1.55,0,1,1,1.5-1.6A1.56,1.56,0,0,1,18.7,62.1Zm0,8.2a1.55,1.55,0,1,1,1.5-1.6A1.56,1.56,0,0,1,18.7,70.3Zm0,8.2a1.55,1.55,0,1,1,1.5-1.6A1.56,1.56,0,0,1,18.7,78.5Zm-8-32.9a1.47,1.47,0,0,1-1.5-1.5,1.54,1.54,0,0,1,1.5-1.5,1.5,1.5,0,0,1,0,3Zm0,8.2a1.47,1.47,0,0,1-1.5-1.5,1.54,1.54,0,0,1,1.5-1.5,1.47,1.47,0,0,1,1.5,1.5,1.42,1.42,0,0,1-1.5,1.5Zm0,8.3a1.47,1.47,0,0,1-1.5-1.5A1.56,1.56,0,0,1,10.7,59a1.47,1.47,0,0,1,1.5,1.5A1.5,1.5,0,0,1,10.7,62.1Zm0,8.2a1.47,1.47,0,0,1-1.5-1.5,1.54,1.54,0,0,1,1.5-1.5,1.5,1.5,0,1,1,0,3Zm0,8.2A1.47,1.47,0,0,1,9.2,77a1.54,1.54,0,0,1,1.5-1.5,1.5,1.5,0,1,1,0,3Zm-8-32.9a1.47,1.47,0,0,1-1.5-1.5,1.54,1.54,0,0,1,1.5-1.5,1.47,1.47,0,0,1,1.5,1.5A1.42,1.42,0,0,1,2.7,45.6Zm0,8.2a1.47,1.47,0,0,1-1.5-1.5,1.54,1.54,0,0,1,1.5-1.5,1.47,1.47,0,0,1,1.5,1.5,1.37,1.37,0,0,1-1.5,1.5Zm0,8.3a1.47,1.47,0,0,1-1.5-1.5A1.63,1.63,0,0,1,2.7,59a1.47,1.47,0,0,1,1.5,1.5A1.44,1.44,0,0,1,2.7,62.1Zm0,8.2a1.47,1.47,0,0,1-1.5-1.5,1.54,1.54,0,0,1,1.5-1.5,1.47,1.47,0,0,1,1.5,1.5A1.42,1.42,0,0,1,2.7,70.3Zm0,8.2A1.47,1.47,0,0,1,1.2,77a1.54,1.54,0,0,1,1.5-1.5A1.47,1.47,0,0,1,4.2,77,1.42,1.42,0,0,1,2.7,78.5Z" transform="translate(-1.2 -1.49)"/></svg>