<svg id="Layer_1" data-name="Layer 1" xmlns="http://www.w3.org/2000/svg" viewBox="0 0 106.52 21.13"><defs><style>.cls-1{fill:#f4a427;}.cls-2{fill:#fff;}.cls-3{fill:#f79422;}.cls-11,.cls-4,.cls-7,.cls-8,.cls-9{fill:none;}.cls-4,.cls-7,.cls-8{stroke:#221f1f;}.cls-11,.cls-4,.cls-7{stroke-linejoin:round;}.cls-5{fill:#5a595c;}.cls-6{fill:#929497;}.cls-11,.cls-7{stroke-linecap:round;}.cls-8,.cls-9{stroke-miterlimit:10;}.cls-11,.cls-9{stroke:#171717;}.cls-9{stroke-width:0.15px;}.cls-10{fill:#171717;}.cls-12{fill:#221f1f;}</style></defs><path d="M34.61,9.6h-4.5l-.31,1.5h4.26l-.42,2.15H29.38l-.7,3.59H25.39L27.31,7.1h7.78Z" transform="translate(-0.59 -0.14)"/><path d="M43.25,16.84h-8L37.12,7.1h3.13l-1.43,7.24h4.92Z" transform="translate(-0.59 -0.14)"/><path d="M49.61,17a6.82,6.82,0,0,1-2.14-.32,4.88,4.88,0,0,1-1.65-.91,4.23,4.23,0,0,1-1.06-1.42,4.53,4.53,0,0,1-.37-1.83,5,5,0,0,1,1.83-4,6.23,6.23,0,0,1,2.06-1.14A7.73,7.73,0,0,1,50.87,7,6.52,6.52,0,0,1,53,7.29a4.88,4.88,0,0,1,1.65.92A4.21,4.21,0,0,1,55.7,9.63a4.36,4.36,0,0,1,.37,1.82,5.22,5.22,0,0,1-.48,2.25,5.12,5.12,0,0,1-1.35,1.75,6.14,6.14,0,0,1-2.05,1.12A7.89,7.89,0,0,1,49.61,17Zm.29-2.49a3.35,3.35,0,0,0,1.15-.2A2.76,2.76,0,0,0,52,13.7a2.7,2.7,0,0,0,.61-.9,2.94,2.94,0,0,0,.23-1.17,2.13,2.13,0,0,0-.16-.84,1.92,1.92,0,0,0-.45-.68,2.43,2.43,0,0,0-.72-.47,2.69,2.69,0,0,0-1-.17,2.88,2.88,0,0,0-1.15.22,2.79,2.79,0,0,0-.92.61,2.6,2.6,0,0,0-.61.91,2.86,2.86,0,0,0-.22,1.14,2,2,0,0,0,.62,1.53A2.26,2.26,0,0,0,49.9,14.48Z" transform="translate(-0.59 -0.14)"/><path d="M66.41,16.84H62.63l-1.87-3.45-.4.2-.64,3.25h-3L58.66,7.1h3L61,10.32a10.09,10.09,0,0,0,1.35-1.13,14.49,14.49,0,0,1,1.27-1.1,6.88,6.88,0,0,1,1.48-.83,5.17,5.17,0,0,1,2-.34l.06,2.26a4.27,4.27,0,0,0-1.36.42,4.82,4.82,0,0,0-1,.66A9.41,9.41,0,0,0,64,11a5.68,5.68,0,0,1-.73.67Z" transform="translate(-0.59 -0.14)"/><path d="M71.21,16.84H68L69.9,7.1h3.23Z" transform="translate(-0.59 -0.14)"/><path d="M80.66,16.84H77.44L79.36,7.1h3.22Z" transform="translate(-0.59 -0.14)"/><path d="M92.91,16.84h-3.7l-1.51-4.5-.42-1.59-.11,1.74-.85,4.35H83.16L85.07,7.1h3.69l1.5,4.47.42,1.59.11-1.63.87-4.43h3.16Z" transform="translate(-0.59 -0.14)"/><path d="M99.37,12.34c0,.1-.05.24-.08.43a2.85,2.85,0,0,0,0,.46,1.08,1.08,0,0,0,.43.92,1.67,1.67,0,0,0,1,.33,2.37,2.37,0,0,0,.7-.1,1.72,1.72,0,0,0,.62-.31,2,2,0,0,0,.49-.55,2.33,2.33,0,0,0,.31-.79L104,7.1h3.16L106,12.74a5.46,5.46,0,0,1-.72,1.85,4.82,4.82,0,0,1-1.21,1.33,5.11,5.11,0,0,1-1.62.8,6.61,6.61,0,0,1-1.9.26,6.48,6.48,0,0,1-1.82-.23,4.23,4.23,0,0,1-1.42-.66,3,3,0,0,1-1.25-2.51c0-.13,0-.33,0-.58s.06-.47.1-.66L97.25,7.1h3.16Z" transform="translate(-0.59 -0.14)"/><g id="Layer_2" data-name="Layer 2"><g id="Layer_4" data-name="Layer 4"><path class="cls-1" d="M19.79,15.85c-.23,2.72-3.43,5-8.23,4.89h0C7,20.63,3.87,18.74,3.64,16a6.32,6.32,0,0,1,0-1.06,7.84,7.84,0,0,1,1.06-3l.34.14a15.27,15.27,0,0,1,2.74-.77,18.53,18.53,0,0,1,3.72-.12h0a18.4,18.4,0,0,1,3.71.12,15.15,15.15,0,0,1,2.75.77l.34-.14.23-.12a9.27,9.27,0,0,1,1.11,3,3.59,3.59,0,0,1,.06,1" transform="translate(-0.59 -0.14)"/><path class="cls-2" d="M19.79,15.85c-.23,2.69-3.4,4.89-8.23,4.86h0C7,20.6,3.87,18.71,3.64,16a6.32,6.32,0,0,1,0-1.06,3.78,3.78,0,0,1,1.46,0,7.46,7.46,0,0,1,2.08,1c.38.17.75-.11,1.09-.43a5.13,5.13,0,0,1,3.4-1.43,4.8,4.8,0,0,1,3.46,1.52,1.09,1.09,0,0,0,.86.34,2.15,2.15,0,0,0,.8-.43,4.09,4.09,0,0,1,2.88-.65,3,3,0,0,1,.09,1" transform="translate(-0.59 -0.14)"/><path class="cls-3" d="M6.5,9.17a2.3,2.3,0,0,1-1.14.63l-.17,0a1.67,1.67,0,0,1-.55.09H4.53l-.29-.09a3.15,3.15,0,0,1-.85-.54A6.94,6.94,0,0,1,2,7.8,5.24,5.24,0,0,1,3.1.71a.31.31,0,0,1,.43.06A.3.3,0,0,1,3.59,1a4.44,4.44,0,0,0,.48,3.57,5.12,5.12,0,0,0,3.23,2,2.55,2.55,0,0,1-.8,2.55" transform="translate(-0.59 -0.14)"/><path class="cls-4" d="M6.5,9.17a2.3,2.3,0,0,1-1.14.63l-.17,0a1.67,1.67,0,0,1-.55.09H4.53l-.29-.09a3.15,3.15,0,0,1-.85-.54A6.94,6.94,0,0,1,2,7.8,5.24,5.24,0,0,1,3.1.71a.31.31,0,0,1,.43.06A.3.3,0,0,1,3.59,1a4.44,4.44,0,0,0,.48,3.57,5.12,5.12,0,0,0,3.23,2A2.55,2.55,0,0,1,6.5,9.17Z" transform="translate(-0.59 -0.14)"/><path class="cls-5" d="M10.62,5.22l-.38,3.66h0l-2.41.37a10.12,10.12,0,0,0-3,1.29l-.09-.6.54-.09.18,0A2.29,2.29,0,0,0,6.53,9.2,2.59,2.59,0,0,0,7.3,6.62l.11,0a4.23,4.23,0,0,1,1.21-.88,4.28,4.28,0,0,1,2-.55" transform="translate(-0.59 -0.14)"/><path class="cls-4" d="M10.62,5.22l-.38,3.66h0l-2.41.37a10.12,10.12,0,0,0-3,1.29l-.09-.6.54-.09.18,0A2.29,2.29,0,0,0,6.53,9.2,2.59,2.59,0,0,0,7.3,6.62l.11,0a4.23,4.23,0,0,1,1.21-.88A4.28,4.28,0,0,1,10.62,5.22Z" transform="translate(-0.59 -0.14)"/><path class="cls-6" d="M19,11.8l-.23.11h0L18.5,12l-.34.15a14.49,14.49,0,0,0-2.74-.77,20.12,20.12,0,0,0-3.72-.35h0A17.74,17.74,0,0,0,8,11.4a14.38,14.38,0,0,0-2.75.77A1.68,1.68,0,0,0,4.9,12l-.49-.22c0-.4,0-.63,0-1,.09-.06.23-.15.38-.23l0,0a10.57,10.57,0,0,1,3-1.29l2.4-.37c.38,0,.78,0,1.18,0,.6,0,1.14,0,1.68,0l2.43.37a10,10,0,0,1,3.09,1.29h0a2,2,0,0,1,.34.23,6.35,6.35,0,0,0,0,1.06" transform="translate(-0.59 -0.14)"/><path class="cls-7" d="M19,11.8l-.23.11h0L18.5,12l-.34.15a14.49,14.49,0,0,0-2.74-.77,23.06,23.06,0,0,0-3.72-.32h0A20,20,0,0,0,8,11.4a14.38,14.38,0,0,0-2.75.77A1.68,1.68,0,0,0,4.9,12l-.49-.22c0-.4,0-.63,0-1,.09-.06.23-.15.38-.23l0,0a10.57,10.57,0,0,1,3-1.29l2.4-.37c.38,0,.78,0,1.18,0,.6,0,1.14,0,1.68,0l2.43.37a10,10,0,0,1,3.09,1.29h0a2,2,0,0,1,.34.23A6.35,6.35,0,0,0,19,11.8Z" transform="translate(-0.59 -0.14)"/><path class="cls-6" d="M13.07,8.88a15.27,15.27,0,0,0-1.68,0c-.4,0-.8,0-1.17,0h0l.38-3.66.08-.74a1.91,1.91,0,0,1,.94-.26h.06a1.8,1.8,0,0,1,.94.26l.09.74v0Z" transform="translate(-0.59 -0.14)"/><path class="cls-7" d="M13.07,8.88a15.27,15.27,0,0,0-1.68,0c-.4,0-.8,0-1.17,0h0l.38-3.66.08-.74a1.91,1.91,0,0,1,.94-.26h.06a1.8,1.8,0,0,1,.94.26l.09.74v0Z" transform="translate(-0.59 -0.14)"/><line class="cls-7" x1="18.14" y1="11.77" x2="18.14" y2="11.77"/><path class="cls-7" d="M19.79,15.88c-.23,2.72-3.69,4.89-8.23,4.89h0c-4.52-.12-7.69-2-7.89-4.72A6.23,6.23,0,0,1,3.7,15a7.78,7.78,0,0,1,1.06-3l.34.15a14.49,14.49,0,0,1,2.74-.77,23.08,23.08,0,0,1,3.72-.35h0a20,20,0,0,1,3.71.35,14.38,14.38,0,0,1,2.75.77l.37-.15.23-.11a9.19,9.19,0,0,1,1.11,3A2.87,2.87,0,0,1,19.79,15.88Z" transform="translate(-0.59 -0.14)"/><path class="cls-3" d="M21.19,7.8a7.84,7.84,0,0,1-1.4,1.48,3.2,3.2,0,0,1-.86.54l-.14.06-.09,0c-.2.06-.31,0-.68-.06l-.17,0A2.28,2.28,0,0,1,16.7,9.2a2.61,2.61,0,0,1-.77-2.58,4.92,4.92,0,0,0,3.23-2A4.54,4.54,0,0,0,19.62,1a.31.31,0,0,1,.23-.37.25.25,0,0,1,.25.06A5.25,5.25,0,0,1,21.19,7.8" transform="translate(-0.59 -0.14)"/><path class="cls-4" d="M21.19,7.8a7.84,7.84,0,0,1-1.4,1.48,3.2,3.2,0,0,1-.86.54l-.14.06-.09,0c-.2.06-.31,0-.68-.06l-.17,0A2.28,2.28,0,0,1,16.7,9.2a2.61,2.61,0,0,1-.77-2.58,4.92,4.92,0,0,0,3.23-2A4.54,4.54,0,0,0,19.62,1a.31.31,0,0,1,.23-.37.25.25,0,0,1,.25.06A5.25,5.25,0,0,1,21.19,7.8Z" transform="translate(-0.59 -0.14)"/><path class="cls-5" d="M18.7,9.91l-.11.63A10,10,0,0,0,15.5,9.25l-2.43-.37L12.7,5.22a4.56,4.56,0,0,1,1.92.55,5,5,0,0,1,1.2.88l.11,0A2.63,2.63,0,0,0,16.7,9.2a2.28,2.28,0,0,0,1.15.62s.14.06.17.06a1.06,1.06,0,0,0,.68,0" transform="translate(-0.59 -0.14)"/><path class="cls-4" d="M18.7,9.91l-.11.63A10,10,0,0,0,15.5,9.25l-2.43-.37L12.7,5.22a4.56,4.56,0,0,1,1.92.55,5,5,0,0,1,1.2.88l.11,0A2.63,2.63,0,0,0,16.7,9.2a2.28,2.28,0,0,0,1.15.62l.17,0C18.39,9.91,18.5,10,18.7,9.91Z" transform="translate(-0.59 -0.14)"/><path class="cls-4" d="M12.7,5.22h-.11" transform="translate(-0.59 -0.14)"/><path class="cls-3" d="M18.73,9.77a.55.55,0,0,1-.08.77l-.06.06" transform="translate(-0.59 -0.14)"/><path class="cls-8" d="M18.73,9.77a.55.55,0,0,1-.08.77l-.06.06" transform="translate(-0.59 -0.14)"/><path class="cls-3" d="M4.64,9.77a.55.55,0,0,0,.09.77l.06.06" transform="translate(-0.59 -0.14)"/><path class="cls-8" d="M4.64,9.77a.55.55,0,0,0,.09.77l.06.06" transform="translate(-0.59 -0.14)"/><path class="cls-9" d="M10.62,17a.77.77,0,0,0,.62-.09.74.74,0,0,0,.49-.77.74.74,0,0,0,.49.77,1.06,1.06,0,0,0,.6.09" transform="translate(-0.59 -0.14)"/><path class="cls-10" d="M12.84,15.14c0,.34-.51.8-1.14.8s-1.14-.46-1.14-.8.51-.46,1.14-.46,1.14.15,1.14.46" transform="translate(-0.59 -0.14)"/><path class="cls-2" d="M12.16,15c0,.08-.23.2-.49.2s-.48-.12-.48-.18.23-.05.48-.05.49-.06.49,0" transform="translate(-0.59 -0.14)"/><path class="cls-9" d="M9.9,16.11a.78.78,0,0,0,.63.83h.09" transform="translate(-0.59 -0.14)"/><path class="cls-11" d="M11.73,15.71v.4" transform="translate(-0.59 -0.14)"/><path class="cls-9" d="M12.84,17h.09a.76.76,0,0,0,.63-.83" transform="translate(-0.59 -0.14)"/><path class="cls-4" d="M20.1.71a5.2,5.2,0,0,1,1.06,7.06" transform="translate(-0.59 -0.14)"/><path class="cls-4" d="M6.5,9.17a2.3,2.3,0,0,1-1.14.63l-.17,0a1.67,1.67,0,0,1-.55.09H4.53l-.29-.09a3.15,3.15,0,0,1-.85-.54A6.94,6.94,0,0,1,2,7.8,5.24,5.24,0,0,1,3.1.71a.31.31,0,0,1,.43.06A.3.3,0,0,1,3.59,1a4.44,4.44,0,0,0,.48,3.57,5.12,5.12,0,0,0,3.23,2A2.55,2.55,0,0,1,6.5,9.17Z" transform="translate(-0.59 -0.14)"/><path class="cls-12" d="M9.62,13.28c0,.63-.38,1.12-.83,1.12S8,13.88,8,13.28a1.11,1.11,0,0,1,.66-1.11l.91.68A1.14,1.14,0,0,1,9.62,13.28Z" transform="translate(-0.59 -0.14)"/><path class="cls-2" d="M9.3,13.14c0,.23-.14.4-.28.4s-.29-.17-.29-.4.14-.4.29-.4.28.17.28.4" transform="translate(-0.59 -0.14)"/><path class="cls-12" d="M8.62,14.14a5.38,5.38,0,0,0-.86.86,2.22,2.22,0,0,0-.49,1.08,1,1,0,0,0,0,.29v.91c0,.2.06.43.09.63s0,.2.06.32a.82.82,0,0,0,.11.28c-.06-.08-.09-.2-.14-.28s-.09-.2-.12-.29-.11-.4-.17-.63S7,16.88,7,16.68v-.63a2,2,0,0,1,.14-.65,5.38,5.38,0,0,1,.28-.6,5.88,5.88,0,0,1,.83-1,.3.3,0,0,1,.38,0,.24.24,0,0,1,0,.34Z" transform="translate(-0.59 -0.14)"/><path class="cls-12" d="M8.42,14.05H8.27l-.14,0a.77.77,0,0,0-.26,0,2,2,0,0,0-.54.05l-.26.09a1.44,1.44,0,0,0-.63.54,1.48,1.48,0,0,1,.32-.51A.64.64,0,0,1,7,14l.25-.17a1.79,1.79,0,0,1,.6-.23,1.16,1.16,0,0,1,.32,0h.28a.3.3,0,0,1,.29.26c0,.14-.14.25-.31.25h0" transform="translate(-0.59 -0.14)"/><path class="cls-12" d="M15.47,13.28c0,.63-.37,1.12-.8,1.12s-.83-.52-.83-1.12a2.22,2.22,0,0,1,.06-.43l.92-.68A1.12,1.12,0,0,1,15.47,13.28Z" transform="translate(-0.59 -0.14)"/><path class="cls-2" d="M14.13,13.14c0,.23.14.4.29.4s.28-.17.28-.4-.14-.4-.28-.4-.29.17-.29.4" transform="translate(-0.59 -0.14)"/><path class="cls-12" d="M15.19,13.74a5.49,5.49,0,0,1,.8,1,3.46,3.46,0,0,1,.31.57,2.11,2.11,0,0,1,.17.63,2.43,2.43,0,0,1,0,.66c0,.2,0,.43-.08.63s-.09.4-.14.6a1.13,1.13,0,0,1-.12.28,1.28,1.28,0,0,1-.14.29c0-.09.08-.2.11-.29s.06-.2.09-.28a4.11,4.11,0,0,0,.08-.6,4.22,4.22,0,0,0,0-.63c0-.2,0-.4-.05-.6a4.46,4.46,0,0,0-.2-.55A2,2,0,0,0,15.7,15a5.83,5.83,0,0,0-.86-.86h0a.25.25,0,0,1,0-.37.24.24,0,0,1,.35,0h0" transform="translate(-0.59 -0.14)"/><path class="cls-12" d="M15,13.54h.31a1.31,1.31,0,0,1,.34,0,2.17,2.17,0,0,1,.63.17,2.79,2.79,0,0,1,.55.37,2,2,0,0,1,.34.52,1.47,1.47,0,0,0-.43-.43,1.23,1.23,0,0,0-.54-.23,4,4,0,0,0-.6,0l-.29,0-.14,0H15a.24.24,0,0,1-.28-.23.24.24,0,0,1,.23-.29h0" transform="translate(-0.59 -0.14)"/></g></g></svg>