<svg id="Layer_1" data-name="Layer 1" xmlns="http://www.w3.org/2000/svg" viewBox="0 0 106.58 21.15"><defs><style>.cls-1{fill:#fff;}.cls-2{fill:#f4a427;}.cls-3{fill:#f79422;}.cls-11,.cls-4,.cls-7,.cls-8,.cls-9{fill:none;}.cls-4,.cls-7,.cls-8{stroke:#221f1f;}.cls-11,.cls-4,.cls-7{stroke-linejoin:round;}.cls-5{fill:#5a595c;}.cls-6{fill:#929497;}.cls-11,.cls-7{stroke-linecap:round;}.cls-8,.cls-9{stroke-miterlimit:10;}.cls-11,.cls-9{stroke:#171717;}.cls-9{stroke-width:0.15px;}.cls-10{fill:#171717;}.cls-12{fill:#221f1f;}</style></defs><path class="cls-1" d="M34,9.46h-4.5L29.21,11h4.26l-.42,2.15H28.79l-.7,3.59H24.8L26.72,7H34.5Z" transform="translate(0.01 0.02)"/><path class="cls-1" d="M42.66,16.7h-8L36.53,7h3.13L38.23,14.2h4.92Z" transform="translate(0.01 0.02)"/><path class="cls-1" d="M49,16.86a6.73,6.73,0,0,1-2.14-.32,4.86,4.86,0,0,1-1.65-.91,4.23,4.23,0,0,1-1.06-1.42,4.44,4.44,0,0,1-.37-1.83,5,5,0,0,1,1.83-4,6.31,6.31,0,0,1,2.06-1.14,7.86,7.86,0,0,1,2.59-.38,6.68,6.68,0,0,1,2.13.29,5,5,0,0,1,1.65.92,4.21,4.21,0,0,1,1,1.42,4.36,4.36,0,0,1,.37,1.82A5.12,5.12,0,0,1,55,13.56a5.24,5.24,0,0,1-1.35,1.75,6.22,6.22,0,0,1-2,1.12A7.8,7.8,0,0,1,49,16.86Zm.29-2.49a3.48,3.48,0,0,0,1.15-.2,2.72,2.72,0,0,0,.95-.61,2.76,2.76,0,0,0,.61-.9,2.94,2.94,0,0,0,.23-1.17,2.2,2.2,0,0,0-.16-.84,1.84,1.84,0,0,0-.45-.68,2.3,2.3,0,0,0-.72-.47,2.63,2.63,0,0,0-1-.17,2.89,2.89,0,0,0-2.07.83,2.65,2.65,0,0,0-.61.91A2.79,2.79,0,0,0,47,12.21a2,2,0,0,0,.62,1.53,2.23,2.23,0,0,0,1.67.6Z" transform="translate(0.01 0.02)"/><path class="cls-1" d="M65.82,16.7H62l-1.87-3.45-.4.2-.64,3.25h-3L58.07,7h3l-.66,3.22a10.36,10.36,0,0,0,1.35-1.13A14.72,14.72,0,0,1,63,8a6.53,6.53,0,0,1,1.48-.83,5.27,5.27,0,0,1,2-.34L66.57,9a4.13,4.13,0,0,0-1.36.42,4.81,4.81,0,0,0-1,.66,9.35,9.35,0,0,0-.8.74,5.8,5.8,0,0,1-.73.67Z" transform="translate(0.01 0.02)"/><path class="cls-1" d="M70.62,16.7H67.41L69.31,7h3.23Z" transform="translate(0.01 0.02)"/><path class="cls-1" d="M80.07,16.7H76.85L78.77,7H82Z" transform="translate(0.01 0.02)"/><path class="cls-1" d="M92.32,16.7h-3.7l-1.51-4.5-.42-1.59-.11,1.74-.85,4.35H82.57L84.48,7h3.69l1.5,4.47L90.09,13l.11-1.63L91.07,7h3.16Z" transform="translate(0.01 0.02)"/><path class="cls-1" d="M98.78,12.2c0,.1,0,.24-.08.43a3.53,3.53,0,0,0,0,.46,1.07,1.07,0,0,0,.43.92,1.71,1.71,0,0,0,1,.33,2.37,2.37,0,0,0,.7-.1,1.72,1.72,0,0,0,.62-.31,2,2,0,0,0,.49-.55,2.25,2.25,0,0,0,.31-.79L103.41,7h3.16l-1.16,5.64a5.37,5.37,0,0,1-.72,1.85,4.81,4.81,0,0,1-1.21,1.33,5.22,5.22,0,0,1-1.62.8,6.46,6.46,0,0,1-1.9.26,6.59,6.59,0,0,1-1.82-.23A4.19,4.19,0,0,1,96.72,16a3,3,0,0,1-1.25-2.51v-.58a3.06,3.06,0,0,1,.1-.66L96.66,7h3.16Z" transform="translate(0.01 0.02)"/><g id="Layer_2" data-name="Layer 2"><g id="Layer_4" data-name="Layer 4"><path class="cls-2" d="M19.2,15.71c-.23,2.72-3.43,5-8.23,4.89h0c-4.56-.11-7.69-2-7.92-4.74a6.25,6.25,0,0,1,0-1.06,7.87,7.87,0,0,1,1.06-3l.34.14a15.27,15.27,0,0,1,2.74-.77,19.27,19.27,0,0,1,3.72-.12h0a18.4,18.4,0,0,1,3.71.12,15.38,15.38,0,0,1,2.75.77l.34-.14.23-.12a9.21,9.21,0,0,1,1.11,3,3.37,3.37,0,0,1,.06,1" transform="translate(0.01 0.02)"/><path class="cls-1" d="M19.2,15.71C19,18.4,15.8,20.6,11,20.57h0c-4.56-.11-7.69-2-7.92-4.71a6.25,6.25,0,0,1,0-1.06,4,4,0,0,1,1.46,0,7.39,7.39,0,0,1,2.08,1c.38.17.75-.11,1.09-.43a5.15,5.15,0,0,1,3.4-1.43,4.8,4.8,0,0,1,3.46,1.52,1.08,1.08,0,0,0,.86.34,2.08,2.08,0,0,0,.8-.43,4.08,4.08,0,0,1,2.88-.65,2.81,2.81,0,0,1,.09,1" transform="translate(0.01 0.02)"/><path class="cls-3" d="M5.91,9a2.3,2.3,0,0,1-1.14.63H4.6a1.71,1.71,0,0,1-.55.09H3.94l-.29-.09a3.15,3.15,0,0,1-.85-.54A7.13,7.13,0,0,1,1.41,7.66,5.24,5.24,0,0,1,2.51.57a.31.31,0,0,1,.43.06A.32.32,0,0,1,3,.86a4.44,4.44,0,0,0,.48,3.57,5.12,5.12,0,0,0,3.23,2A2.54,2.54,0,0,1,5.91,9" transform="translate(0.01 0.02)"/><path class="cls-4" d="M5.91,9a2.3,2.3,0,0,1-1.14.63H4.6a1.71,1.71,0,0,1-.55.09H3.94l-.29-.09a3.15,3.15,0,0,1-.85-.54A7.13,7.13,0,0,1,1.41,7.66,5.24,5.24,0,0,1,2.51.57a.31.31,0,0,1,.43.06A.32.32,0,0,1,3,.86a4.44,4.44,0,0,0,.48,3.57,5.12,5.12,0,0,0,3.23,2A2.53,2.53,0,0,1,5.91,9Z" transform="translate(0.01 0.02)"/><path class="cls-5" d="M10,5.08,9.65,8.74h0l-2.41.37a10,10,0,0,0-3,1.29l-.09-.6.54-.09h.18a2.28,2.28,0,0,0,1.07-.65,2.58,2.58,0,0,0,.77-2.58h.11A4.37,4.37,0,0,1,8,5.6a4.38,4.38,0,0,1,2-.55" transform="translate(0.01 0.02)"/><path class="cls-4" d="M10,5.08,9.65,8.74h0l-2.41.37a10,10,0,0,0-3,1.29l-.09-.6.54-.09h.18a2.28,2.28,0,0,0,1.07-.65,2.58,2.58,0,0,0,.77-2.58h.11A4.37,4.37,0,0,1,8,5.6,4.35,4.35,0,0,1,10,5.08Z" transform="translate(0.01 0.02)"/><path class="cls-6" d="M18.41,11.66l-.23.11h0l-.27.09-.34.15a14.49,14.49,0,0,0-2.74-.77,20.2,20.2,0,0,0-3.72-.35h0a17.73,17.73,0,0,0-3.7.37A13.88,13.88,0,0,0,4.66,12a1.62,1.62,0,0,0-.35-.17l-.49-.22v-1c.09-.06.23-.15.38-.23h0a10.64,10.64,0,0,1,3-1.29l2.4-.37h2.86l2.43.37A9.89,9.89,0,0,1,18,10.41h0a1.85,1.85,0,0,1,.34.23,6.25,6.25,0,0,0,0,1.06" transform="translate(0.01 0.02)"/><path class="cls-7" d="M18.41,11.66l-.23.11h0l-.27.09-.34.15a14.49,14.49,0,0,0-2.74-.77,23.16,23.16,0,0,0-3.72-.32h0a20,20,0,0,0-3.7.34A13.88,13.88,0,0,0,4.66,12a1.62,1.62,0,0,0-.35-.17l-.49-.22v-1c.09-.06.23-.15.38-.23h0a10.64,10.64,0,0,1,3-1.29l2.4-.37h2.86l2.43.37A9.89,9.89,0,0,1,18,10.41h0a1.85,1.85,0,0,1,.34.23A5.86,5.86,0,0,0,18.41,11.66Z" transform="translate(0.01 0.02)"/><path class="cls-6" d="M12.48,8.74a15.69,15.69,0,0,0-1.68,0H9.63L10,5.08l.08-.74A1.85,1.85,0,0,1,11,4.08h.06a1.82,1.82,0,0,1,.94.26l.09.74h0Z" transform="translate(0.01 0.02)"/><path class="cls-7" d="M12.48,8.74a15.69,15.69,0,0,0-1.68,0H9.63L10,5.08l.08-.74A1.85,1.85,0,0,1,11,4.08h.06a1.82,1.82,0,0,1,.94.26l.09.74h0Z" transform="translate(0.01 0.02)"/><line class="cls-7" x1="18.15" y1="11.79" x2="18.15" y2="11.79"/><path class="cls-7" d="M19.2,15.74C19,18.46,15.51,20.63,11,20.63h0c-4.52-.12-7.69-2-7.89-4.72a6.14,6.14,0,0,1,0-1.05,7.71,7.71,0,0,1,1.06-3l.34.15a14.49,14.49,0,0,1,2.74-.77A23.19,23.19,0,0,1,11,10.89h0a20.09,20.09,0,0,1,3.71.35,13.88,13.88,0,0,1,2.75.77l.37-.15.23-.11a9.21,9.21,0,0,1,1.11,3A2.75,2.75,0,0,1,19.2,15.74Z" transform="translate(0.01 0.02)"/><path class="cls-3" d="M20.6,7.66a7.85,7.85,0,0,1-1.4,1.48,3.36,3.36,0,0,1-.86.54l-.14.06h-.09c-.2.06-.31,0-.68-.06h-.17a2.28,2.28,0,0,1-1.15-.62,2.62,2.62,0,0,1-.77-2.58,5,5,0,0,0,3.23-2A4.55,4.55,0,0,0,19,.86a.3.3,0,0,1,.23-.37.26.26,0,0,1,.25.06A5.26,5.26,0,0,1,20.6,7.66" transform="translate(0.01 0.02)"/><path class="cls-4" d="M20.6,7.66a7.85,7.85,0,0,1-1.4,1.48,3.36,3.36,0,0,1-.86.54l-.14.06h-.09c-.2.06-.31,0-.68-.06h-.17a2.28,2.28,0,0,1-1.15-.62,2.62,2.62,0,0,1-.77-2.58,5,5,0,0,0,3.23-2A4.55,4.55,0,0,0,19,.86a.3.3,0,0,1,.23-.37.26.26,0,0,1,.25.06A5.26,5.26,0,0,1,20.6,7.66Z" transform="translate(0.01 0.02)"/><path class="cls-5" d="M18.11,9.77,18,10.4a9.89,9.89,0,0,0-3.09-1.29l-2.43-.37-.37-3.66A4.62,4.62,0,0,1,14,5.63a5,5,0,0,1,1.2.88h.11a2.64,2.64,0,0,0,.77,2.55,2.28,2.28,0,0,0,1.15.62,1.07,1.07,0,0,0,.17.06,1.13,1.13,0,0,0,.68,0" transform="translate(0.01 0.02)"/><path class="cls-4" d="M18.11,9.77,18,10.4a9.89,9.89,0,0,0-3.09-1.29l-2.43-.37-.37-3.66A4.62,4.62,0,0,1,14,5.63a5,5,0,0,1,1.2.88h.11a2.64,2.64,0,0,0,.77,2.55,2.28,2.28,0,0,0,1.15.62h.17C17.8,9.77,17.91,9.86,18.11,9.77Z" transform="translate(0.01 0.02)"/><path class="cls-4" d="M12.11,5.08H12" transform="translate(0.01 0.02)"/><path class="cls-3" d="M18.14,9.63a.55.55,0,0,1-.08.77l-.06.06" transform="translate(0.01 0.02)"/><path class="cls-8" d="M18.14,9.63a.55.55,0,0,1-.08.77l-.06.06" transform="translate(0.01 0.02)"/><path class="cls-3" d="M4.05,9.63a.54.54,0,0,0,.09.77l.06.06" transform="translate(0.01 0.02)"/><path class="cls-8" d="M4.05,9.63a.54.54,0,0,0,.09.77l.06.06" transform="translate(0.01 0.02)"/><path class="cls-9" d="M10,16.86a.75.75,0,0,0,.62-.09.74.74,0,0,0,.49-.77.74.74,0,0,0,.49.77,1,1,0,0,0,.6.09" transform="translate(0.01 0.02)"/><path class="cls-10" d="M12.25,15c0,.34-.51.8-1.14.8S10,15.34,10,15s.51-.46,1.14-.46,1.14.15,1.14.46" transform="translate(0.01 0.02)"/><path class="cls-1" d="M11.57,14.86c0,.08-.23.2-.49.2s-.48-.12-.48-.18.23-.05.48-.05.49-.06.49,0" transform="translate(0.01 0.02)"/><path class="cls-9" d="M9.31,16a.78.78,0,0,0,.63.83H10" transform="translate(0.01 0.02)"/><path class="cls-11" d="M11.14,15.57V16" transform="translate(0.01 0.02)"/><path class="cls-9" d="M12.25,16.86h.09A.76.76,0,0,0,13,16" transform="translate(0.01 0.02)"/><path class="cls-4" d="M19.51.57a5.2,5.2,0,0,1,1.06,7.06" transform="translate(0.01 0.02)"/><path class="cls-4" d="M5.91,9a2.3,2.3,0,0,1-1.14.63H4.6a1.71,1.71,0,0,1-.55.09H3.94l-.29-.09a3.15,3.15,0,0,1-.85-.54A7.13,7.13,0,0,1,1.41,7.66,5.24,5.24,0,0,1,2.51.57a.31.31,0,0,1,.43.06A.32.32,0,0,1,3,.86a4.44,4.44,0,0,0,.48,3.57,5.12,5.12,0,0,0,3.23,2A2.53,2.53,0,0,1,5.91,9Z" transform="translate(0.01 0.02)"/><path class="cls-12" d="M9,13.14c0,.63-.38,1.12-.83,1.12s-.79-.52-.79-1.12A1.12,1.12,0,0,1,8.07,12l.91.68A1.24,1.24,0,0,1,9,13.14Z" transform="translate(0.01 0.02)"/><path class="cls-1" d="M8.71,13c0,.23-.14.4-.28.4s-.29-.17-.29-.4.14-.4.29-.4.28.17.28.4" transform="translate(0.01 0.02)"/><path class="cls-12" d="M8,14a5,5,0,0,0-.86.86,2.18,2.18,0,0,0-.49,1.08,1.41,1.41,0,0,0,0,.29v.91a4.55,4.55,0,0,0,.09.63c0,.2,0,.2.06.32a1,1,0,0,0,.11.28c-.06-.08-.09-.2-.14-.28a1.48,1.48,0,0,1-.12-.29c0-.09-.11-.4-.17-.63a2.49,2.49,0,0,1-.1-.63v-.63a2.1,2.1,0,0,1,.14-.65,4.11,4.11,0,0,1,.28-.6,6.12,6.12,0,0,1,.83-1,.3.3,0,0,1,.38,0A.25.25,0,0,1,8,14H8Z" transform="translate(0.01 0.02)"/><path class="cls-12" d="M7.83,13.91H7.28a2,2,0,0,0-.54.05l-.26.09a1.38,1.38,0,0,0-.63.54,1.52,1.52,0,0,1,.32-.51.64.64,0,0,1,.24-.22l.25-.17a1.82,1.82,0,0,1,.6-.23,1.71,1.71,0,0,1,.32,0h.28a.29.29,0,0,1,.29.26.28.28,0,0,1-.31.25h0" transform="translate(0.01 0.02)"/><path class="cls-12" d="M14.88,13.14c0,.63-.37,1.12-.8,1.12s-.83-.52-.83-1.12a3.18,3.18,0,0,1,.06-.43l.92-.68A1.12,1.12,0,0,1,14.88,13.14Z" transform="translate(0.01 0.02)"/><path class="cls-1" d="M13.54,13c0,.23.14.4.29.4s.28-.17.28-.4-.14-.4-.28-.4-.29.17-.29.4" transform="translate(0.01 0.02)"/><path class="cls-12" d="M14.6,13.6a6,6,0,0,1,.8,1,3.91,3.91,0,0,1,.31.57,2,2,0,0,1,.17.63,2.43,2.43,0,0,1,0,.66,1.71,1.71,0,0,1-.08.63,4.34,4.34,0,0,0-.14.6,1.39,1.39,0,0,1-.12.28,1.11,1.11,0,0,1-.14.29,1.15,1.15,0,0,1,.11-.29c0-.09.06-.2.09-.28a4.11,4.11,0,0,0,.08-.6,3.32,3.32,0,0,0,0-.63,2.43,2.43,0,0,0,0-.6,3.62,3.62,0,0,0-.2-.55,2,2,0,0,0-.32-.45,5.83,5.83,0,0,0-.86-.86h0a.25.25,0,0,1,0-.35l0,0a.24.24,0,0,1,.34,0h0" transform="translate(0.01 0.02)"/><path class="cls-12" d="M14.41,13.4h.65a2,2,0,0,1,.63.17,2.94,2.94,0,0,1,.55.37,2,2,0,0,1,.34.52,1.47,1.47,0,0,0-.43-.43,1.18,1.18,0,0,0-.54-.23,3,3,0,0,0-.6,0h-.6a.25.25,0,0,1-.28-.2v0a.23.23,0,0,1,.18-.28h0" transform="translate(0.01 0.02)"/></g></g></svg>