<svg id="Layer_1" data-name="Layer 1" xmlns="http://www.w3.org/2000/svg" viewBox="0 0 2071.93 1035.05"><defs><style>.cls-1{fill:#f79422;}</style></defs><path class="cls-1" d="M1625,205a50,50,0,1,1-50,50A50,50,0,0,1,1625,205Z" transform="translate(173.93 188)"/><path class="cls-1" d="M992,602a50,50,0,1,1-50,50A50,50,0,0,1,992,602Z" transform="translate(173.93 188)"/><path class="cls-1" d="M1242,624l188-204,468,371H1453Z" transform="translate(173.93 188)"/><path class="cls-1" d="M1339,386a139,139,0,1,1-139,139A139,139,0,0,1,1339,386Z" transform="translate(173.93 188)"/><path class="cls-1" d="M1026.5-188c145,0,262.5,117.5,262.5,262.5S1171.5,337,1026.5,337,764,219.5,764,74.5,881.5-188,1026.5-188Z" transform="translate(173.93 188)"/><path class="cls-1" d="M174.5,337.6,346.2,558.4a79.28,79.28,0,0,1-13.9,111.3L125.7,830.4A79.33,79.33,0,0,1,14.5,816.5L-157.2,595.7a79.28,79.28,0,0,1,13.9-111.3L63.3,323.7a79.15,79.15,0,0,1,111.2,13.9Z" transform="translate(173.93 188)"/><path class="cls-1" d="M273,105a50,50,0,1,1-50,50A50,50,0,0,1,273,105Z" transform="translate(173.93 188)"/></svg>